<?xml version="1.0" encoding="UTF-8"?><svg xmlns="http://www.w3.org/2000/svg" viewBox="0 0 540.078 540.078"><path d="M376.31 115.48H79.094c-3.906 0-7.077 3.172-7.076 7.078v410.447c0 3.906 3.17 7.077 7.076 7.077H376.31c3.908 0 7.078-3.17 7.078-7.078V122.557c0-3.906-3.17-7.076-7.077-7.076zm-7.075 155.686V525.93H86.17V129.632h283.065z"/><path d="M225.15 136.352c-76.764 0-139.22 62.453-139.22 139.22 0 56.975 35.33 108.312 87.423 129.254-3.666 2.787-6.32 4.943-7.62 6.246-13.576 13.56-13.576 35.64 0 49.214 6.57 6.57 15.313 10.19 24.613 10.19 9.3 0 18.042-3.62 24.6-10.19 4.446-4.448 18.73-24.494 34.73-47.644 66.63-11.804 114.692-68.972 114.692-137.07 0-76.766-62.453-139.222-139.22-139.222zm-20.033 314.076c-7.88 7.88-21.65 7.88-29.528 0-8.146-8.144-8.146-21.384 0-29.528 6.152-6.167 55.268-39.942 98.9-69.372-29.43 43.63-63.22 92.736-69.373 98.9zm56.28-54.837c20.322-29.713 40.292-59.588 44.36-65.683 1.852-2.757 1.476-6.432-.863-8.785-2.353-2.352-6.014-2.728-8.785-.863-9.325 6.223-74.31 49.663-109.224 74.646-51.398-16.48-87.03-65.065-87.03-119.34 0-69.092 56.216-125.292 125.294-125.292s125.293 56.202 125.293 125.293c0 56.353-36.56 104.4-89.048 120.02z"/><path d="M225.15 233.804c-23.027 0-41.765 18.738-41.765 41.765s18.74 41.764 41.765 41.764 41.766-18.74 41.766-41.765-18.74-41.766-41.766-41.766zm0 69.608c-15.355 0-27.843-12.487-27.843-27.843s12.488-27.844 27.843-27.844 27.844 12.487 27.844 27.843-12.488 27.842-27.844 27.842z"/><g><g fill="#fac917"><path d="M493.363 117.58l-62.426 157.916L453.88 117.58"/><path d="M447.557 161.116h-39.483L431.022 3.2h78.96"/></g></g></svg>